<?xml version="1.0" ?><svg style="enable-background:new 0 0 24 24;" version="1.1" viewBox="0 0 24 24" xml:space="preserve" xmlns="http://www.w3.org/2000/svg" xmlns:xlink="http://www.w3.org/1999/xlink"><style type="text/css">
	.st0{display:none;}
</style><g class="st0" id="grid"/><g id="icon"><path d="M23.5,11.5c-0.276,0-0.5,0.224-0.5,0.5c0,6.065-4.935,11-11,11S1,18.065,1,12S5.935,1,12,1   c2.771,0,5.386,1.018,7.417,2.876L12,11.293L8.854,8.146c-0.195-0.195-0.512-0.195-0.707,0s-0.195,0.512,0,0.707L11.293,12   l-3.146,3.147c-0.195,0.195-0.195,0.512,0,0.707s0.512,0.195,0.707,0L12,12.707l3.146,3.146C15.244,15.951,15.372,16,15.5,16   s0.256-0.049,0.354-0.146c0.195-0.195,0.195-0.512,0-0.707L12.707,12l7.778-7.778c0.195-0.195,0.195-0.512,0-0.707   C18.219,1.248,15.206,0,12,0C5.383,0,0,5.383,0,12s5.383,12,12,12s12-5.383,12-12C24,11.724,23.776,11.5,23.5,11.5z"/></g></svg>